<svg width="100" height="184" viewBox="0 -30 200 200" fill="none" xmlns="http://www.w3.org/2000/svg">
<path d="M84.9915 160.502L84.8412 160.229C84.9198 160.243 85.0237 160.255 85.1511 160.264C85.1278 160.353 85.0833 160.413 85.0593 160.441C85.025 160.481 84.9949 160.5 84.9916 160.502L84.9915 160.502ZM103.799 173.774C103.798 173.774 103.797 173.775 103.797 173.776L84.854 183.317C84.8373 183.319 84.8183 183.321 84.797 183.323C84.6997 183.332 84.5551 183.345 84.368 183.36C83.9937 183.39 83.4496 183.427 82.7742 183.455C81.4227 183.512 79.5491 183.535 77.4606 183.398C73.2594 183.121 68.2876 182.202 64.9135 179.704C63.2291 178.457 62.4179 177.239 62.1004 176.146C61.7832 175.054 61.9404 174.024 62.3086 173.116C62.679 172.202 63.2575 171.427 63.7532 170.874C63.9995 170.6 64.2217 170.384 64.381 170.238C64.4606 170.166 64.5243 170.11 64.5671 170.074C64.574 170.068 64.5803 170.063 64.5861 170.058L84.6076 160.686C84.7558 160.731 84.9395 160.75 85.1017 160.762C85.5319 160.794 86.2044 160.799 87.0304 160.794C87.4474 160.792 87.9073 160.787 88.4022 160.782C89.8877 160.768 91.6878 160.75 93.5849 160.783C96.1141 160.826 98.7919 160.96 101.087 161.307C102.234 161.48 103.274 161.705 104.146 161.994C105.023 162.285 105.697 162.629 106.141 163.023C107.041 163.82 107.372 164.844 107.347 165.983C107.322 167.139 106.928 168.394 106.389 169.577C105.853 170.754 105.188 171.825 104.654 172.606C104.388 172.995 104.156 173.309 103.991 173.526C103.909 173.634 103.843 173.718 103.799 173.774Z" fill="#E0F6FF" stroke="#05D5E8"/>
<path d="M26.9633 106.649V98.0272L66.6041 99.6784L66.1116 105.669L59.2359 109.422L26.9633 106.649Z" fill="#E0F6FF" stroke="#05D5E8"/>
<path d="M8.8724 101.063C8.90171 101.313 8.93178 101.553 8.96199 101.782C-1.07447 82.3587 0.565615 70.5702 4.69154 63.6241C6.85336 59.9845 9.72371 57.626 12.0582 56.1762C13.2249 55.4517 14.255 54.9559 14.9909 54.6421C15.3586 54.4852 15.6525 54.374 15.8526 54.3026C15.897 54.2867 15.9368 54.2728 15.9718 54.2608C15.9726 54.2613 15.9734 54.2618 15.9743 54.2623C16.0523 54.3074 16.1523 54.3706 16.2736 54.4528C16.5159 54.6168 16.8284 54.8464 17.1972 55.1349C17.934 55.7113 18.8814 56.512 19.9173 57.4701C21.9923 59.3892 24.4011 61.9201 26.1832 64.5253C27.9849 67.1593 29.0608 69.7473 28.6814 71.8227C28.3192 73.8034 26.5643 75.5573 22.0468 76.3898C17.3229 77.2604 14.167 79.5291 12.109 82.4458C10.0612 85.348 9.12248 88.8593 8.75815 92.1985C8.39347 95.5409 8.60061 98.7453 8.8724 101.063Z" fill="#E0F6FF" stroke="#05D5E8"/>
<path d="M6.4048 26.3307L11.9754 23.7858L38.1699 65.8697L30.6435 92.7005L24.238 91.8521L6.4048 26.3307Z" fill="#E0F6FF" stroke="#05D5E8"/>
<path d="M122.339 140.578C122.236 140.507 122.158 140.448 122.105 140.406L108.53 107.218L110.003 105.979L110.02 105.965L110.036 105.949L141.536 74.2132L175.044 62.5217C175.191 62.817 175.337 63.2505 175.47 63.8363C175.652 64.6431 175.795 65.6762 175.897 66.8984C176.102 69.3412 176.142 72.495 176.029 76.013C175.803 83.0483 174.97 91.4951 173.651 98.5404C172.618 104.059 168.272 110.705 162.437 117.392C156.619 124.061 149.382 130.701 142.671 136.202C136.028 141.647 130.83 142.619 127.343 142.287C125.592 142.121 124.25 141.624 123.351 141.172C122.901 140.947 122.562 140.733 122.339 140.578Z" fill="#E0F6FF" stroke="#05D5E8"/>
<path d="M143.092 3.66492C132.157 3.93631 124.457 10.6843 124.807 23.4456L124.744 35.2736C121.731 35.6827 117.132 36.692 117.132 39.1311C117.132 41.4545 121.768 44.1966 125.073 45.0363L125.261 50.9892C125.261 50.9892 130.991 57.6308 138.039 58.4899L142.806 73.8486L168.58 57.3943L161.109 41.774C163.716 40.5845 167.451 38.072 169.026 32.9638C171.57 24.7142 171.152 15.8145 160.978 8.59711C157.799 6.34141 148.063 3.54154 143.092 3.66492Z" fill="#E0F6FF" stroke="#05D5E8" stroke-linecap="round" stroke-linejoin="round"/>
<path d="M159.846 56.9354C159.956 56.8855 160.047 56.8451 160.119 56.8148L160.319 57.2493C160.291 57.2501 160.255 57.2487 160.215 57.2411C160.17 57.2326 160.077 57.2086 159.986 57.1315C159.923 57.0773 159.876 57.0095 159.846 56.9354ZM160.322 57.2718C160.324 57.2709 160.326 57.27 160.328 57.2692L160.348 57.3134C160.349 57.3145 160.349 57.3145 160.349 57.3145L160.349 57.3145L160.349 57.3145L160.35 57.3143L160.355 57.3129L160.378 57.3066C160.4 57.301 160.432 57.2926 160.475 57.2819C160.562 57.2603 160.691 57.2294 160.857 57.193C161.19 57.1202 161.673 57.0253 162.264 56.939C163.45 56.766 165.066 56.6287 166.794 56.7661C170.254 57.0412 174.071 58.4015 175.918 62.6791C177.827 67.1022 178.086 71.49 176.741 75.3063C175.398 79.119 172.435 82.4138 167.802 84.6236C163.07 86.8809 154.157 90.9741 146.424 94.5047C142.559 96.2697 138.989 97.8934 136.386 99.076C135.084 99.6672 134.024 100.148 133.289 100.481L132.442 100.865L132.221 100.966L132.165 100.991L132.15 100.998L132.147 100.999L132.146 101C132.146 101 132.146 101 132.352 101.455L132.146 101L132.014 101.059L131.94 101.172C131.937 101.176 131.931 101.183 131.922 101.194C131.899 101.219 131.858 101.261 131.793 101.314C131.664 101.418 131.438 101.566 131.077 101.688C130.357 101.931 129.066 102.084 126.902 101.535C126.479 101.428 126.021 101.119 125.536 100.575C125.055 100.035 124.579 99.2983 124.115 98.4013C123.188 96.6077 122.345 94.2429 121.617 91.7144C120.163 86.6595 119.193 81.0409 118.918 78.2476L118.42 78.2966L118.918 78.2475C118.799 77.0449 119.35 75.9519 120.443 74.9282C121.54 73.8996 123.134 72.9913 124.96 72.188C127.812 70.9336 131.12 69.9794 133.776 69.2133C134.525 68.9974 135.222 68.7964 135.842 68.6079L135.842 68.6079C138.676 67.746 145.269 64.6158 150.892 61.8714C152.586 61.0449 154.203 60.2477 155.61 59.5542C156.543 59.0939 157.384 58.6793 158.094 58.332C158.987 57.8947 159.671 57.5646 160.078 57.3793C160.179 57.3332 160.261 57.2974 160.322 57.2718Z" fill="#E0F6FF" stroke="#05D5E8"/>
<path d="M147.139 28.043L147.139 28.0431L147.147 28.0427C147.933 28.0061 148.696 28.1304 149.312 28.5245C149.913 28.9093 150.437 29.591 150.684 30.8005C151.208 33.3737 150.926 34.9859 150.343 35.9767C150.108 36.3758 149.816 36.6888 149.485 36.9303C149.972 36.3193 150.345 35.5107 150.216 34.4964L150.216 34.4964C150.164 34.0883 150.143 33.6584 150.121 33.2003C150.111 32.9976 150.101 32.7894 150.088 32.5751C150.046 31.902 149.974 31.1878 149.76 30.5491C149.541 29.899 149.166 29.3006 148.508 28.899C147.858 28.5025 146.995 28.3369 145.875 28.4184L145.873 28.4186L126.318 29.9214L125.83 29.9589L125.857 30.4475L126.387 40.0466L126.248 40.0739L124.413 28.7877L127.518 28.6393L147.139 28.043Z" fill="#E0F6FF" stroke="#05D5E8"/>
<path d="M13.0946 24.6357L32.0421 28.5895L49.3183 87.3333L30.9279 91.852L13.0946 24.6357Z" fill="#E0F6FF" stroke="#05D5E8" stroke-linecap="round" stroke-linejoin="round"/>
<path d="M69.2162 97.292L52.4983 91.6435L26.306 97.292L61.9715 104.07L69.2162 97.292Z" fill="#E0F6FF" stroke="#05D5E8"/>
<path d="M107.561 81.8671C105.027 81.8936 98.16 82.8558 96.3489 83.8443C89.1042 87.7982 81.3166 96.7141 81.3166 96.7141L78.0738 94.2426L78.0499 94.1473L74.6199 90.3189C74.1823 90.9802 57.1621 90.1693 50.6295 90.7424C50.6295 90.7424 49.4861 95.8306 57.0715 95.838C60.0357 95.0325 62.3574 95.6619 65.2306 96.4797L57.0715 106.577C57.0715 106.577 61.4806 110.227 65.3817 102.884C66.1853 101.371 71.5345 102.069 72.3416 101.838C73.535 105.634 75.3043 109.768 77.416 109.768C81.317 109.768 124.785 105.235 127.572 98.4572C130.358 91.6791 121.998 80.9487 121.441 80.384C121.441 80.384 119.114 81.215 111.513 81.2945L107.561 81.8671Z" fill="#E0F6FF" stroke="#05D5E8" stroke-linecap="round" stroke-linejoin="round"/>
<path d="M131.923 47.421C133.354 46.3707 134.387 45.4492 135.134 44.6628C135.108 44.7302 135.082 44.7979 135.055 44.8658C134.481 46.317 133.673 47.7793 132.619 48.5706C131.118 49.6969 128.331 50.6527 125.361 50.0263V49.0885C127.47 49.2361 129.867 48.9307 131.923 47.421Z" fill="#E0F6FF" stroke="#05D5E8"/>
<path d="M129.198 34.5888C129.23 34.6504 129.261 34.7108 129.292 34.7698L125.052 33.0306C125.239 32.406 125.439 31.972 125.636 31.6832C125.87 31.3387 126.071 31.2393 126.212 31.2158C126.36 31.1909 126.56 31.2313 126.827 31.4031C127.092 31.5743 127.378 31.8476 127.671 32.1984C128.254 32.8985 128.796 33.823 129.198 34.5888Z" fill="#E0F6FF" stroke="#05D5E8"/>
<path d="M108.945 109.529L75.0852 118.349C66.1166 120.686 54.1197 129.175 65.5916 144.811C77.0629 160.448 79.1253 167.857 82.0471 170.07C90.6506 176.585 107.166 159.144 107.166 159.144L96.1298 142.085C96.1298 142.085 129.041 142.806 132.205 142.005C135.37 141.203 111.319 110.331 108.945 109.529Z" fill="#E0F6FF" stroke="#05D5E8" stroke-linecap="round" stroke-linejoin="round"/>
<path d="M191.061 64.2694C191.579 60.3229 189.239 56.7514 185.833 56.2923C182.428 55.8331 179.246 58.6602 178.728 62.6067L173.99 98.6445C173.472 102.591 175.812 106.163 179.218 106.622C182.623 107.081 185.805 104.254 186.323 100.307L191.061 64.2694Z" fill="#E0F6FF" stroke="#05D5E8"/>
<path d="M101.893 125.143H100.066C100.287 114.2 107.762 105.549 116.809 105.549H151.129C160.176 105.549 167.651 114.201 167.873 125.143H166.046C165.827 115.62 159.361 107.917 151.129 107.917H116.81C116.81 107.917 116.81 107.917 116.809 107.917C108.577 107.918 102.112 115.62 101.893 125.143Z" fill="#E0F6FF" stroke="#05D5E8"/>
<path d="M164.617 141.89L164.935 143.104L165.539 142.004C166.533 140.19 167.089 138.129 167.089 135.905V130.747C167.089 123.776 161.542 118.144 154.648 118.144H108.579C101.682 118.144 96.1718 123.778 96.1718 130.748V135.905C96.1718 137.943 96.6711 139.834 97.5037 141.528L98.0254 142.589L98.4233 141.476C98.803 140.412 99.8878 139.408 101.545 138.666C103.189 137.929 105.326 137.484 107.677 137.492H107.677L155.407 137.632C155.407 137.632 155.407 137.632 155.407 137.632C157.823 137.641 160 138.136 161.64 138.929C163.296 139.729 164.328 140.791 164.617 141.89ZM92.9844 126.328C92.9844 116.131 101.064 107.918 111.105 107.918H151.464C161.504 107.918 169.584 116.131 169.584 126.328V134.397C169.584 144.593 161.505 152.806 151.464 152.806H111.105C101.065 152.806 92.9844 144.593 92.9844 134.397V126.328Z" fill="#E0F6FF" stroke="#05D5E8"/>
<path d="M164.146 39.9112C164.141 39.9143 164.135 39.9173 164.129 39.9203L129.482 9.30204L129.305 8.83418L129.014 8.94401L128.987 9.22532C128.983 9.2344 128.976 9.25098 128.963 9.27332C128.928 9.33202 128.837 9.45079 128.617 9.57882C128.165 9.84178 127.163 10.1433 125.041 9.99625L125.041 9.99623C124.081 9.93015 123.62 9.58189 123.384 9.18284C123.128 8.74893 123.072 8.14444 123.157 7.46141C123.233 6.84264 123.418 6.22022 123.6 5.72171C123.744 5.90503 123.91 6.06474 124.099 6.2001C124.583 6.54756 125.169 6.70285 125.8 6.73408C127.043 6.79558 128.591 6.38092 130.247 5.78282C131.649 5.27655 133.182 4.61753 134.742 3.94698C135.039 3.81931 135.337 3.69121 135.636 3.56368C137.51 2.76208 139.402 1.97931 141.179 1.42854L141.179 1.42853C142.876 0.90238 145.007 0.91865 147.362 1.33377C149.71 1.74768 152.242 2.55084 154.72 3.55826C159.682 5.57558 164.363 8.38561 166.843 10.4351C169.216 12.3966 170.531 16.1833 171.069 20.332C171.603 24.4546 171.352 28.7971 170.715 31.7213L171.169 31.82L170.715 31.7213C170.096 34.5662 168.406 36.6421 166.849 38.0165C166.072 38.7023 165.333 39.2078 164.791 39.5411C164.52 39.7075 164.299 39.8305 164.146 39.9112Z" fill="#E0F6FF" stroke="#05D5E8"/>
<path d="M78.0698 30.4695C75.0495 30.4695 72.6011 32.6505 72.6011 35.3413C72.6011 38.0316 75.0495 40.2131 78.0698 40.2131C81.0889 40.2131 83.5384 38.0325 83.5384 35.3413C83.5384 32.6505 81.0901 30.4695 78.0698 30.4695ZM80.3484 37.7772C80.3484 37.9694 80.1444 38.1252 79.8927 38.1252H76.2469C75.9951 38.1252 75.7912 37.9694 75.7912 37.7772V37.0812C75.7912 36.8889 75.9951 36.7332 76.2469 36.7332H77.1583V34.3217L77.1316 34.3352C77.0818 34.3605 77.026 34.3782 76.9673 34.387C76.9086 34.3959 76.8481 34.3959 76.7895 34.3869C76.7308 34.3779 76.675 34.3602 76.6253 34.3348C76.5756 34.3093 76.533 34.2766 76.4998 34.2386L75.994 33.6597C75.9608 33.6216 75.9377 33.579 75.926 33.5342C75.9144 33.4894 75.9145 33.4432 75.9262 33.3984C75.938 33.3536 75.9612 33.311 75.9945 33.2731C76.0278 33.2351 76.0706 33.2026 76.1204 33.1773L76.9937 32.7327C77.2182 32.6184 77.4821 32.5574 77.7519 32.5574H78.5255C78.7773 32.5574 78.9812 32.7131 78.9812 32.9054V36.7332H79.8927C80.1444 36.7332 80.3484 36.8889 80.3484 37.0812V37.7772ZM94.4757 26.9897H61.6638C60.6573 26.9897 59.8409 27.613 59.8409 28.3816V42.301C59.8409 43.0696 60.6573 43.6929 61.6638 43.6929H94.4757C95.4823 43.6929 96.2986 43.0696 96.2986 42.301V28.3816C96.2986 27.613 95.4823 26.9897 94.4757 26.9897ZM93.5643 38.8211C91.5506 38.8211 89.9185 40.0673 89.9185 41.605H66.221C66.221 40.0673 64.589 38.8211 62.5753 38.8211V31.8614C64.589 31.8614 66.221 30.6152 66.221 29.0776H89.9185C89.9185 30.6152 91.5506 31.8614 93.5643 31.8614V38.8211Z" fill="#05D5E8"/>
</svg>
